<svg xmlns="http://www.w3.org/2000/svg" viewBox="0 0 100 100">
  <defs>
    <linearGradient id="plateGradient" x1="0%" y1="0%" x2="100%" y2="100%">
      <stop offset="0%" style="stop-color:#3B82F6;stop-opacity:1" />
      <stop offset="100%" style="stop-color:#1D4ED8;stop-opacity:1" />
    </linearGradient>
  </defs>
  
  <!-- Plate/Circle -->
  <circle cx="50" cy="50" r="35" fill="url(#plateGradient)" stroke="#1E40AF" stroke-width="2"/>
  
  <!-- Fork -->
  <path d="M 30 20 L 30 45 L 28 45 L 28 20 L 30 20 Z M 25 20 L 33 20 L 33 18 L 25 18 Z" fill="#FFFFFF" opacity="0.9"/>
  <path d="M 28 20 L 28 25 L 25 25 L 25 20 Z M 28 25 L 28 30 L 25 30 L 25 25 Z" fill="#FFFFFF" opacity="0.9"/>
  
  <!-- Knife -->
  <path d="M 70 20 L 70 45 L 72 45 L 72 20 L 70 20 Z M 67 20 L 75 20 L 75 18 L 67 18 Z" fill="#FFFFFF" opacity="0.9"/>
  <path d="M 70 20 L 70 25 L 67 25 L 67 20 Z M 70 25 L 70 30 L 67 30 L 67 25 Z" fill="#FFFFFF" opacity="0.9"/>
  
  <!-- Food item (simple representation) -->
  <circle cx="50" cy="50" r="12" fill="#FBBF24" opacity="0.8"/>
  <circle cx="50" cy="50" r="8" fill="#F59E0B"/>
</svg>

